<?xml version="1.0" encoding="UTF-8"?>
<svg id="_圖層_1" data-name="圖層 1" xmlns="http://www.w3.org/2000/svg" viewBox="0 0 425.2 344.12">
  <defs>
    <style>
      .cls-1 {
        fill: #ad906f;
      }
    </style>
  </defs>
  <circle class="cls-1" cx="212.51" cy="337.41" r="6.71"/>
  <path class="cls-1" d="M236.84,336.81c-5.91-3.75-10.81-8.02-16.05-12.5-5.4.98-10.79,1.07-16.34-.02l-15.31,12.07c-2.63,2.07-6.25,1.55-8.63-.66-12.55-10.63-24.57-23.28-33.08-37.43-17.97-6.37-32.28-14.08-47.02-26.24-24.06-19.84-37.9-50.6-31.93-82.15-15.78,9.75-35.59,7.14-49.79-3.67C7.19,177.79.55,164.92.04,150.64c-.65-18.37,6.74-39.17,15.26-55.54,10.37-19.95,23.04-38.51,37.88-55.35,5.26-5.97,10.59-11.4,16.7-16.4,20.89-17.12,44.98-19.35,67.07-2.54C157.97,8.47,181.63,1.37,206.11.17c28.96-1.42,57.65,5.99,82.67,20.56l6.9-4.64c17.83-10.58,37.58-8.33,54.27,3.41,6.48,4.56,12.05,9.8,17.49,15.56,9.4,9.97,17.65,20.49,25.46,31.75,10.73,15.46,19.89,30.95,26.21,48.75,3.07,8.64,4.99,17.31,5.82,26.44,1.32,14.52-1.95,28.3-12.24,38.78-14.78,15.5-37.81,20.37-56.45,8.63,4.16,24.42-1.3,46.41-15.45,65.96-15.54,21.46-38.35,34.2-62.88,42.99l-5.8,8.95c-8.22,10.83-17.52,20.5-28.11,29.04-1.84,1.48-5.09,1.75-7.15.45ZM224.38,299.3c26.32-1.1,52.04-7.79,75.15-20.43,19.97-10.92,36.75-27.11,44.66-48.65,5.52-15.05,5.98-31.13,1.13-46.32l-6.36-15.79c-2.51-6.23-4.56-12.43-5.78-19.08-1.49-8.11-2.17-15.96-2.76-24.19-1.91-26.73-8.69-52.49-25.11-73.94-2.06-1.81-2.06-4.72-.33-6.63,1.46-1.62,4.68-2.05,6.42-.16,3.28,3.56,5.82,7.54,8.33,11.75,12.79,21.42,18.22,46.02,19.82,70.83.5,7.75,1.18,15.1,2.85,22.63,2.32,10.49,6.19,21.53,14.1,28.82,6.7,6.17,15.1,9.1,24.24,8.54,8.07-.49,15.32-3.7,21.56-8.73,14.6-11.76,16.01-28.45,12-46.08-2.72-11.97-7-23.31-12.8-34.2-7.62-14.3-16.76-27.52-26.78-40.23-7.1-9.01-14.48-17.4-22.96-25.06-4.03-3.64-8.18-6.69-12.96-9.22-15.87-8.39-32.29-5.72-46.07,5.36-1.6,1.29-3.86,2.21-5.81,1.14-6.36-3.5-12.55-6.78-19.3-9.62-21.24-8.94-44.21-12.71-67.21-10.59-21.46,1.98-41.92,8.67-60.27,19.75-2.63,1.59-5.35.95-7.61-.75-3.93-2.95-7.95-5.37-12.5-7.26-14.75-6.12-29.7-2.32-42.19,7.11-11.28,8.53-22.01,21.88-30.76,33.27-6.71,8.72-12.54,17.69-18.09,27.19-8.57,14.67-15.89,31.1-18.97,47.81-2.81,15.23-.33,29.9,11.58,40.24,6.75,5.86,14.89,9.49,23.83,9.92,15.63.75,27.44-8.46,33.21-22.44,5.8-14.04,6.45-26.75,7.63-41.71,1.03-13.05,3.47-25.55,7.24-38.08,4.31-14.32,10.66-27.74,19.45-39.77,1.63-2.23,4.6-2.35,6.51-.46,1.39,1.39,1.86,4.03.59,5.82-16.09,22.59-23.6,50-25.32,77.55-1.1,17.57-3.63,35.4-13.41,50.24-7.98,20.13-7.04,40.18,2.69,59.49,11.35,22.52,34.38,39.45,57.45,48.84,27.44,11.17,53.27,14.35,82.89,13.11ZM194.99,320.43c-8.45-4.84-15.84-9.63-23.17-15.19l-10.17-2.45c7.15,9.22,15.09,17.33,23.8,25.16l9.54-7.51ZM240.02,327.92c6.38-5.73,11.89-11.04,17.26-17.04l6.47-8-9.8,2.31c-7.4,5.82-15.22,10.71-23.62,15.29l9.68,7.45ZM222.21,314.53l11.22-6.69c-13.97,1.13-27.07,1.06-40.9.01l11.2,6.76c6.12,1.36,12.25,1.42,18.48-.08Z"/>
  <path class="cls-1" d="M227,273.94c-9.16,2.28-18.27,2.29-27.31.41-14.87-3.35-27.56-12.78-32.01-27.56-15.19-2.48-28.45-10.96-33.82-25.48-.82-2.9.54-5.68,3.25-6.5,2.84-.87,5.46.7,6.38,3.67,1.38,4.46,4.22,8.21,7.89,11.18,13.11,10.57,33.09,10.67,46.44.68,5.22-3.91,8.48-9.56,8.81-16.08.08-1.52-.17-3.34-.92-4.51-10.19-4.63-23.18-13.96-27.41-24.06-2.37-5.65-.75-11.71,4.17-15.43,3.25-2.46,6.88-4.22,10.95-5.4,14.75-4.27,33.6-3.99,46.88,4.06,5.99,3.63,8.42,10.37,5.65,16.95-4.3,10.22-17.2,19.01-27.43,23.99-2.58,11.22,4.74,19.77,14.8,24.39,12.57,5.78,29.02,4.41,39.78-4.62,3.54-2.97,6.34-6.66,7.67-11.03.81-2.66,2.98-4.38,5.7-3.93s4.39,3.08,3.9,6c-4.72,14.68-18.34,23.74-33.48,26.16-4.03,13.93-15.77,23.34-29.88,27.09ZM227.21,178.27c.55-.47,1.14-1.45,1.15-2.01.04-2.24-3.46-3.93-6.41-4.63-6.71-1.59-13.68-1.47-20.35.43-2.28.65-5.25,2.32-5.12,4.17.39,6.01,23.81,7.93,30.74,2.04ZM234.26,260.27c5.26-3.08,9.47-7.36,12.02-13.07-13.77-.68-26.74-6.78-34.02-18.8-7.14,11.64-20.23,17.85-33.84,18.72,9.05,19.7,38.65,23.22,55.84,13.15Z"/>
  <path class="cls-1" d="M162.56,152.93c-9.9,4.55-20.85.26-25.98-9.09-4.58-8.34-4.82-18.68-.22-27.03,3.43-6.22,9.47-10.17,16.17-10.73,7.12-.6,14.08,2.43,18.27,8.46,8.67,12.47,5.1,32.25-8.24,38.39ZM156.15,121.15c0-4.38-3.55-7.93-7.93-7.93s-7.93,3.55-7.93,7.93,3.55,7.93,7.93,7.93,7.93-3.55,7.93-7.93Z"/>
  <path class="cls-1" d="M289.69,143.42c-3.38,6.56-9.51,10.67-16.23,11.22-7.45.61-14.3-2.66-18.52-8.83-7.15-10.47-6.24-26.79,3.15-34.74,5.18-4.38,11.76-6.16,18.61-4.43,14.82,3.75,20.21,22.79,12.99,36.78ZM273.29,121.15c0-4.38-3.55-7.93-7.94-7.93s-7.94,3.55-7.94,7.93,3.55,7.93,7.94,7.93,7.94-3.55,7.94-7.93Z"/>
</svg>